<svg xmlns="http://www.w3.org/2000/svg" width="800" height="450" viewBox="0 0 800 450" font-family="ui-monospace,SFMono-Regular,Menlo,monospace">
  <!-- Vibe Code Doctor card template. Double-underscore tokens (CHAPTER, PILLS,
       ROWS, CH1, SCORE, PASS, FAIL, READY, ...) are filled in by doctor.sh.
       Safe to redesign; keep the injection-point tokens intact. -->
  <defs><linearGradient id="bg" x1="0" y1="0" x2="1" y2="1"><stop offset="0" stop-color="#fef3e2"/><stop offset="1" stop-color="#fde2c4"/></linearGradient></defs>
  <rect width="800" height="450" fill="url(#bg)"/>
  <rect x="12" y="12" width="776" height="426" fill="none" stroke="#d97706" stroke-width="3" rx="16"/>
  <rect x="34" y="26" width="60" height="26" rx="13" fill="#d97706"/>
  <text x="64" y="44" font-size="14" font-weight="700" text-anchor="middle" fill="#ffffff">__CHAPTER__</text>
  <text x="110" y="44" font-size="13" fill="#a16207">__HDR_DATE__  &#183;  __PLATFORM__  &#183;  claude:__CHOICE__</text>
  <text x="766" y="44" font-size="16" font-weight="700" text-anchor="end" fill="#9a3412">@__USER__</text>
  <text x="40" y="80" font-size="13" font-weight="700" letter-spacing="1" fill="#b45309">ENVIRONMENT</text>
  <line x1="40" y1="86" x2="300" y2="86" stroke="#e6b27a" stroke-width="1"/>
  <text x="52" y="112" font-size="15" fill="#3f2a14">Platform</text>
  <rect x="210" y="97" width="90" height="22" rx="6" fill="none" stroke="#d9a066"/><text x="222" y="112" font-size="13" fill="#7c2d12">__PLATFORM__</text>
  <text x="52" y="140" font-size="15" fill="#3f2a14">Claude Loc</text>
  <rect x="210" y="125" width="90" height="22" rx="6" fill="none" stroke="#d9a066"/><text x="222" y="140" font-size="13" fill="#7c2d12">__CLAUDE_LOC__</text>
  <text x="52" y="168" font-size="15" fill="#3f2a14">Choice</text>
  <rect x="210" y="153" width="90" height="22" rx="6" fill="none" stroke="#d9a066"/><text x="222" y="168" font-size="13" fill="#7c2d12">__CHOICE__</text>
  <text x="40" y="184" font-size="13" font-weight="700" letter-spacing="1" fill="#b45309">SYSTEM CHECKS</text>
  __PILLS__
  <text x="40" y="252" font-size="13" font-weight="700" letter-spacing="1" fill="#b45309">SERVICES</text>
  <line x1="40" y1="258" x2="300" y2="258" stroke="#e6b27a" stroke-width="1"/>
  __ROWS__
  __CH1__
  <rect x="566" y="58" width="200" height="306" rx="14" fill="#fff7ec" stroke="#e6b27a"/>
  <rect x="596" y="70" width="72" height="22" rx="11" fill="none" stroke="#d9a066"/>
  <text x="632" y="85" font-size="12" font-weight="700" letter-spacing="1" text-anchor="middle" fill="#9a3412">SCORE</text>
  <circle cx="666" cy="158" r="56" fill="none" stroke="#f0d2a8" stroke-width="10"/>
  <text x="666" y="178" font-size="58" font-weight="700" text-anchor="middle" fill="#c2410c">__SCORE__</text>
  <text x="666" y="214" font-size="13" text-anchor="middle" fill="#9a3412">checkpoints passed</text>
  <rect x="586" y="240" width="160" height="22" rx="6" fill="#fde7cf"/>
  <text x="596" y="255" font-size="13" font-weight="700" fill="#7c2d12">PASS</text>
  <text x="736" y="255" font-size="13" font-weight="700" text-anchor="end" fill="#16a34a">__PASS__</text>
  <text x="596" y="281" font-size="13" font-weight="700" fill="#7c2d12">FAIL</text>
  <text x="736" y="281" font-size="13" font-weight="700" text-anchor="end" fill="#dc2626">__FAIL__</text>
  <text x="586" y="308" font-size="11" fill="#a16207">CHAPTER</text><text x="746" y="308" font-size="11" text-anchor="end" fill="#7c2d12">__CHAPTER__</text>
  <text x="586" y="326" font-size="11" fill="#a16207">PLATFORM</text><text x="746" y="326" font-size="11" text-anchor="end" fill="#7c2d12">__PLATFORM__</text>
  <text x="586" y="344" font-size="11" fill="#a16207">CLAUDE</text><text x="746" y="344" font-size="11" text-anchor="end" fill="#7c2d12">__CLAUDE_LOC__</text>
  <rect x="320" y="418" width="170" height="22" rx="11" fill="none" stroke="__READY__"/>
  <text x="405" y="433" font-size="12" text-anchor="middle" fill="#a16207">vibecode.tours</text>
</svg>
